<svg width="319" height="40" viewBox="0 0 319 40" fill="none" xmlns="http://www.w3.org/2000/svg">
<path d="M16.424 36.672C13.512 36.672 10.856 35.92 8.456 34.416C6.056 32.912 4.168 30.832 2.792 28.176C1.416 25.52 0.728 22.528 0.728 19.2C0.728 15.872 1.416 12.88 2.792 10.224C4.168 7.568 6.04 5.488 8.408 3.984C10.808 2.48 13.464 1.728 16.376 1.728C18.2 1.728 19.96 2.08 21.656 2.784C23.384 3.552 24.776 4.56 25.832 5.808V0.815998H29.672V14.976H25.688V12.672C25.688 11.424 25.256 10.256 24.392 9.168C23.56 8.048 22.44 7.168 21.032 6.528C19.624 5.856 18.088 5.52 16.424 5.52C14.216 5.52 12.216 6.112 10.424 7.296C8.664 8.48 7.272 10.112 6.248 12.192C5.256 14.272 4.76 16.608 4.76 19.2C4.76 21.792 5.256 24.128 6.248 26.208C7.272 28.288 8.68 29.92 10.472 31.104C12.264 32.288 14.264 32.88 16.472 32.88C18.232 32.88 19.864 32.544 21.368 31.872C22.872 31.168 24.072 30.24 24.968 29.088C25.864 27.936 26.312 26.688 26.312 25.344V22.8H30.248V36.384H26.408V32.4C25.32 33.712 23.864 34.768 22.04 35.568C20.248 36.304 18.376 36.672 16.424 36.672ZM47.6746 36.48C45.2426 36.48 43.0506 35.936 41.0986 34.848C39.1786 33.76 37.6586 32.272 36.5386 30.384C35.4186 28.464 34.8586 26.336 34.8586 24C34.8586 21.664 35.4186 19.552 36.5386 17.664C37.6586 15.744 39.1786 14.24 41.0986 13.152C43.0506 12.064 45.2426 11.52 47.6746 11.52C50.0746 11.52 52.2506 12.064 54.2026 13.152C56.1546 14.24 57.6906 15.744 58.8106 17.664C59.9306 19.552 60.4906 21.664 60.4906 24C60.4906 26.336 59.9306 28.464 58.8106 30.384C57.6906 32.272 56.1546 33.76 54.2026 34.848C52.2506 35.936 50.0746 36.48 47.6746 36.48ZM47.6746 32.976C49.4026 32.976 50.9546 32.592 52.3306 31.824C53.7386 31.024 54.8266 29.952 55.5946 28.608C56.3946 27.232 56.7946 25.696 56.7946 24C56.7946 22.304 56.3946 20.784 55.5946 19.44C54.8266 18.064 53.7386 16.992 52.3306 16.224C50.9546 15.424 49.4026 15.024 47.6746 15.024C45.9466 15.024 44.3786 15.424 42.9706 16.224C41.5946 16.992 40.5066 18.064 39.7066 19.44C38.9386 20.784 38.5546 22.304 38.5546 24C38.5546 25.696 38.9386 27.232 39.7066 28.608C40.5066 29.952 41.5946 31.024 42.9706 31.824C44.3786 32.592 45.9466 32.976 47.6746 32.976ZM63.4288 32.496H67.6528V15.504H63.4288V12H70.8208V16.224C71.6528 14.784 72.7888 13.648 74.2288 12.816C75.6688 11.952 77.2848 11.52 79.0768 11.52C81.1568 11.52 82.9648 11.984 84.5008 12.912C86.0368 13.84 87.2048 15.168 88.0048 16.896C88.8368 18.624 89.2528 20.64 89.2528 22.944V32.496H93.0448V36H81.0928V32.496H85.7008V23.376C85.7008 20.816 85.0448 18.784 83.7328 17.28C82.4208 15.776 80.6448 15.024 78.4048 15.024C77.0608 15.024 75.8288 15.392 74.7088 16.128C73.5888 16.864 72.7088 17.872 72.0688 19.152C71.4608 20.432 71.1568 21.84 71.1568 23.376V32.496H75.7648V36H63.4288V32.496ZM107.364 36.288C104.74 36.288 102.74 35.6 101.364 34.224C100.02 32.816 99.3481 30.8 99.3481 28.176V15.504H93.8281V12H97.9081C98.3881 12 98.7561 11.872 99.0121 11.616C99.2681 11.36 99.3961 10.992 99.3961 10.512V6.24H102.804V12H113.604V15.504H102.804V28.128C102.804 29.696 103.236 30.88 104.1 31.68C104.996 32.448 106.26 32.832 107.892 32.832C108.98 32.832 110.004 32.704 110.964 32.448C111.924 32.16 112.804 31.824 113.604 31.44V34.992C112.708 35.376 111.716 35.696 110.628 35.952C109.572 36.176 108.484 36.288 107.364 36.288ZM124.099 36.528C121.699 36.528 119.811 35.92 118.435 34.704C117.091 33.456 116.419 31.84 116.419 29.856C116.419 27.232 117.539 25.344 119.779 24.192C122.019 23.04 124.947 22.384 128.563 22.224C129.811 22.16 130.867 22.048 131.731 21.888C132.595 21.696 133.267 21.44 133.747 21.12C134.227 20.768 134.467 20.352 134.467 19.872C134.467 18.272 133.891 16.992 132.739 16.032C131.587 15.04 130.115 14.544 128.323 14.544C127.331 14.544 126.323 14.72 125.299 15.072C124.275 15.424 123.427 15.92 122.755 16.56C122.115 17.2 121.795 17.968 121.795 18.864V20.448H118.435V10.8H121.699V14.16C122.147 13.712 122.691 13.296 123.331 12.912C124.099 12.464 124.947 12.128 125.875 11.904C126.835 11.648 127.827 11.52 128.851 11.52C131.699 11.52 133.971 12.384 135.667 14.112C137.363 15.808 138.211 18.096 138.211 20.976V32.496H141.955V36H134.755V30.912C133.891 32.608 132.483 33.968 130.531 34.992C128.579 36.016 126.435 36.528 124.099 36.528ZM125.155 33.36C126.915 33.36 128.531 32.976 130.003 32.208C131.475 31.44 132.627 30.432 133.459 29.184C134.323 27.904 134.755 26.528 134.755 25.056V23.568C134.275 23.92 133.571 24.208 132.643 24.432C131.747 24.624 130.531 24.784 128.995 24.912C125.891 25.136 123.635 25.616 122.227 26.352C120.819 27.056 120.115 28.144 120.115 29.616C120.115 30.832 120.563 31.76 121.459 32.4C122.355 33.04 123.587 33.36 125.155 33.36ZM163.796 33.36C163.156 34.128 162.276 34.8 161.156 35.376C160.452 35.728 159.684 36 158.852 36.192C158.02 36.384 157.14 36.48 156.212 36.48C154.004 36.48 152.004 35.936 150.212 34.848C148.42 33.76 147.012 32.272 145.988 30.384C144.964 28.464 144.452 26.336 144.452 24C144.452 21.664 144.964 19.552 145.988 17.664C147.012 15.744 148.42 14.24 150.212 13.152C152.004 12.064 154.004 11.52 156.212 11.52C157.812 11.52 159.3 11.824 160.676 12.432C161.7 12.912 162.58 13.52 163.316 14.256V10.272H166.58V20.928H163.124V19.296C163.06 18.528 162.692 17.808 162.02 17.136C161.38 16.464 160.564 15.936 159.572 15.552C158.612 15.136 157.588 14.928 156.5 14.928C154.932 14.928 153.508 15.328 152.228 16.128C150.98 16.928 149.988 18.016 149.252 19.392C148.516 20.768 148.148 22.304 148.148 24C148.148 25.696 148.516 27.232 149.252 28.608C149.988 29.984 150.98 31.072 152.228 31.872C153.508 32.64 154.932 33.024 156.5 33.024C157.716 33.024 158.852 32.816 159.908 32.4C160.964 31.952 161.828 31.36 162.5 30.624C163.172 29.856 163.54 29.024 163.604 28.128V26.352H167.06V36.528H163.796V33.36ZM183.677 36.288C181.053 36.288 179.053 35.6 177.677 34.224C176.333 32.816 175.661 30.8 175.661 28.176V15.504H170.141V12H174.221C174.701 12 175.069 11.872 175.325 11.616C175.581 11.36 175.709 10.992 175.709 10.512V6.24H179.117V12H189.917V15.504H179.117V28.128C179.117 29.696 179.549 30.88 180.413 31.68C181.309 32.448 182.573 32.832 184.205 32.832C185.293 32.832 186.317 32.704 187.277 32.448C188.237 32.16 189.117 31.824 189.917 31.44V34.992C189.021 35.376 188.029 35.696 186.941 35.952C185.885 36.176 184.797 36.288 183.677 36.288ZM192.875 26.832H195.995V28.08C195.995 29.104 196.363 30.032 197.099 30.864C197.867 31.664 198.891 32.304 200.171 32.784C201.483 33.232 202.891 33.456 204.395 33.456C206.251 33.456 207.707 33.152 208.763 32.544C209.819 31.904 210.347 31.04 210.347 29.952C210.347 29.216 210.107 28.608 209.627 28.128C209.179 27.616 208.411 27.184 207.323 26.832C206.267 26.448 204.763 26.064 202.811 25.68C200.731 25.296 198.987 24.784 197.579 24.144C196.171 23.504 195.067 22.704 194.267 21.744C193.499 20.752 193.115 19.568 193.115 18.192C193.115 16.08 193.899 14.448 195.467 13.296C197.035 12.112 199.131 11.52 201.755 11.52C202.747 11.52 203.707 11.616 204.635 11.808C205.563 11.968 206.443 12.224 207.275 12.576C208.075 12.864 208.795 13.264 209.435 13.776V10.272H212.843V20.448H209.435V18.864C209.435 18.128 209.115 17.456 208.475 16.848C207.835 16.208 206.971 15.696 205.883 15.312C204.827 14.928 203.707 14.736 202.523 14.736C200.763 14.736 199.371 15.04 198.347 15.648C197.355 16.256 196.859 17.12 196.859 18.24C196.859 19.168 197.211 19.904 197.915 20.448C198.651 20.96 199.883 21.44 201.611 21.888C201.995 21.984 202.395 22.08 202.811 22.176C203.227 22.24 203.659 22.32 204.107 22.416C204.299 22.448 204.475 22.48 204.635 22.512C204.827 22.544 205.003 22.592 205.163 22.656C207.147 23.104 208.779 23.632 210.059 24.24C211.371 24.848 212.363 25.616 213.035 26.544C213.739 27.44 214.091 28.56 214.091 29.904C214.091 32.016 213.243 33.664 211.547 34.848C209.851 36 207.643 36.576 204.923 36.576C203.995 36.576 203.099 36.512 202.235 36.384C201.371 36.288 200.571 36.128 199.835 35.904C198.203 35.36 196.923 34.608 195.995 33.648V36.336H192.875V26.832ZM253.228 36H229.564V32.16H234.652V6.24H229.564V2.4H245.26V6.24H238.636V32.16H253.132C253.164 32.16 253.18 32.16 253.18 32.16C253.18 32.128 253.18 32.112 253.18 32.112C253.212 32.112 253.228 32.096 253.228 32.064V21.744H257.212V39.024H253.228V36ZM259.366 32.496H264.214V15.504H259.366V12H267.718V32.496H272.518V36H259.366V32.496ZM262.198 0.239997H268.342L265.51 8.592H264.982L262.198 0.239997ZM275.188 26.832H278.308V28.08C278.308 29.104 278.676 30.032 279.412 30.864C280.18 31.664 281.204 32.304 282.484 32.784C283.796 33.232 285.204 33.456 286.708 33.456C288.564 33.456 290.02 33.152 291.076 32.544C292.132 31.904 292.66 31.04 292.66 29.952C292.66 29.216 292.42 28.608 291.94 28.128C291.492 27.616 290.724 27.184 289.636 26.832C288.58 26.448 287.076 26.064 285.124 25.68C283.044 25.296 281.3 24.784 279.892 24.144C278.484 23.504 277.38 22.704 276.58 21.744C275.812 20.752 275.428 19.568 275.428 18.192C275.428 16.08 276.212 14.448 277.78 13.296C279.348 12.112 281.444 11.52 284.068 11.52C285.06 11.52 286.02 11.616 286.948 11.808C287.876 11.968 288.756 12.224 289.588 12.576C290.388 12.864 291.108 13.264 291.748 13.776V10.272H295.156V20.448H291.748V18.864C291.748 18.128 291.428 17.456 290.788 16.848C290.148 16.208 289.284 15.696 288.196 15.312C287.14 14.928 286.02 14.736 284.836 14.736C283.076 14.736 281.684 15.04 280.66 15.648C279.668 16.256 279.172 17.12 279.172 18.24C279.172 19.168 279.524 19.904 280.228 20.448C280.964 20.96 282.196 21.44 283.924 21.888C284.308 21.984 284.708 22.08 285.124 22.176C285.54 22.24 285.972 22.32 286.42 22.416C286.612 22.448 286.788 22.48 286.948 22.512C287.14 22.544 287.316 22.592 287.476 22.656C289.46 23.104 291.092 23.632 292.372 24.24C293.684 24.848 294.676 25.616 295.348 26.544C296.052 27.44 296.404 28.56 296.404 29.904C296.404 32.016 295.556 33.664 293.86 34.848C292.164 36 289.956 36.576 287.236 36.576C286.308 36.576 285.412 36.512 284.548 36.384C283.684 36.288 282.884 36.128 282.148 35.904C280.516 35.36 279.236 34.608 278.308 33.648V36.336H275.188V26.832ZM312.02 36.288C309.396 36.288 307.396 35.6 306.02 34.224C304.676 32.816 304.004 30.8 304.004 28.176V15.504H298.484V12H302.564C303.044 12 303.412 11.872 303.668 11.616C303.924 11.36 304.052 10.992 304.052 10.512V6.24H307.46V12H318.26V15.504H307.46V28.128C307.46 29.696 307.892 30.88 308.756 31.68C309.652 32.448 310.916 32.832 312.548 32.832C313.636 32.832 314.66 32.704 315.62 32.448C316.58 32.16 317.46 31.824 318.26 31.44V34.992C317.364 35.376 316.372 35.696 315.284 35.952C314.228 36.176 313.14 36.288 312.02 36.288Z" fill="white"/>
</svg>
